PathFileType	4	(X/Y/Z)	SUBJ94_0_static_RCNL2025.trc
DataRate	CameraRate	NumFrames	NumMarkers	Units	OrigDataRate	OrigDataStartFrame	OrigNumFrames
100	100	13	25	mm	100	171	227
Frame#	Time	R_Shoulder			L_Shoulder			C7			J_Notch			R_Elbow			L_Elbow			R_Wrist			L_Wrist			R_Asis			L_Asis			Sacral			Thoracic			Sternum			R_Thigh_Lateral			R_Knee_Lateral			R_Shank_Lateral			R_Ankle_Lateral			R_Heel			R_Toe			L_Thigh_Lateral			L_Knee_Lateral			L_Shank_Lateral			L_Ankle_Lateral			L_Heel			L_Toe		
		X1	Y1	Z1	X2	Y2	Z2	X3	Y3	Z3	X4	Y4	Z4	X5	Y5	Z5	X6	Y6	Z6	X7	Y7	Z7	X8	Y8	Z8	X9	Y9	Z9	X10	Y10	Z10	X11	Y11	Z11	X12	Y12	Z12	X13	Y13	Z13	X14	Y14	Z14	X15	Y15	Z15	X16	Y16	Z16	X17	Y17	Z17	X18	Y18	Z18	X19	Y19	Z19	X20	Y20	Z20	X21	Y21	Z21	X22	Y22	Z22	X23	Y23	Z23	X24	Y24	Z24	X25	Y25	Z25
171	1.70000000	-300.100769	1270.943970	-56.340721	-286.355927	1285.288086	-432.603973	-345.686920	1352.152222	-243.383163	-230.754486	1264.326660	-247.802933	-365.479034	1019.830688	63.196941	-348.115814	1032.088623	-550.776489	-339.242310	807.284058	130.896366	-302.865585	806.398926	-588.825256	-218.542358	882.575317	-118.146339	-203.234833	873.460144	-344.567993	-401.709473	939.070984	-252.992249	-406.588470	1148.508545	-254.190872	-189.035248	1072.129517	-240.463837	-307.339020	537.267944	-58.585728	-326.070496	444.165039	-116.495392	-348.152222	260.900421	-75.446014	-360.956421	55.719021	-158.262634	-404.351929	52.434265	-206.256165	-226.268005	37.843864	-188.179764	-293.709320	535.832153	-428.948822	-320.397400	439.460022	-373.732483	-335.626404	259.529938	-436.868500	-358.764496	56.669819	-331.950562	-399.430023	46.555084	-283.593262	-233.160721	42.592136	-300.380554
172	1.71000000	-300.293762	1270.902710	-56.318546	-286.390625	1285.270996	-432.609283	-345.846191	1352.187134	-243.377625	-230.938431	1264.307983	-247.787537	-365.634216	1019.858826	63.194199	-348.157074	1032.114014	-550.783203	-339.382492	807.275482	130.925377	-302.855209	806.446289	-588.899017	-218.563049	882.606506	-118.156403	-203.230682	873.477478	-344.571411	-401.781403	939.082275	-252.956314	-406.756012	1148.509888	-254.167252	-189.037445	1072.138550	-240.462341	-307.363831	537.301880	-58.580761	-326.125519	444.201782	-116.454330	-348.134491	260.994568	-75.372772	-360.965302	55.748573	-158.247131	-404.358093	52.463768	-206.237152	-226.326599	37.902744	-188.147324	-293.716858	535.832703	-428.966003	-320.404694	439.479980	-373.758484	-335.688965	259.586243	-436.797882	-358.837677	56.754364	-331.965057	-399.345337	46.544910	-283.524841	-233.160934	42.582355	-300.425476
173	1.72000000	-300.390259	1270.911865	-56.346573	-286.548065	1285.273560	-432.585968	-345.926727	1352.174927	-243.338974	-230.944077	1264.380615	-247.740036	-365.672852	1019.873230	63.215439	-348.071350	1032.125000	-550.847046	-339.614609	807.282745	130.937038	-302.816055	806.472961	-588.921600	-218.650650	882.580872	-118.001274	-203.301987	873.472534	-344.504517	-401.851562	939.114075	-253.010025	-406.804504	1148.504761	-254.243713	-189.224365	1072.127319	-240.406830	-307.336334	537.278503	-58.570869	-326.145325	444.211975	-116.443489	-348.099518	260.976959	-75.415520	-360.950897	55.776421	-158.258057	-404.349701	52.453102	-206.257324	-226.352005	37.908100	-188.151230	-293.652252	535.848816	-428.965454	-320.332123	439.443024	-373.689819	-335.583435	259.564484	-436.924042	-358.806519	56.709129	-331.971039	-399.427429	46.563751	-283.550964	-233.161911	42.585670	-300.430420
174	1.73000000	-300.536652	1270.932495	-56.347366	-286.591461	1285.233154	-432.622162	-346.073639	1352.137085	-243.335617	-231.111206	1264.407349	-247.729660	-365.805084	1019.830383	63.196182	-348.171906	1032.131226	-550.846497	-339.759506	807.209839	130.859901	-302.845413	806.478485	-588.982483	-218.642883	882.597961	-118.040039	-203.318558	873.466980	-344.493958	-401.865479	939.063293	-252.993530	-406.884521	1148.461060	-254.219330	-189.235153	1072.205078	-240.395676	-307.331329	537.281494	-58.579121	-326.167389	444.223755	-116.396919	-348.096313	260.870422	-75.471375	-361.029419	55.786922	-158.306320	-404.367065	52.463825	-206.234421	-226.321121	37.914169	-188.160217	-293.642395	535.907104	-428.956787	-320.310791	439.466034	-373.681305	-335.626587	259.639435	-436.786560	-358.773132	56.752537	-331.987762	-399.464813	46.610371	-283.548553	-233.150574	42.625950	-300.413940
175	1.74000000	-300.646088	1270.896606	-56.310871	-286.678253	1285.278564	-432.600891	-346.235870	1352.160034	-243.357620	-231.210754	1264.417603	-247.655701	-366.019012	1019.861633	63.198746	-348.223694	1032.165039	-550.927551	-339.913193	807.184998	130.829365	-302.853775	806.511383	-589.039307	-218.695404	882.719604	-118.100960	-203.314346	873.467896	-344.497162	-401.833496	939.004639	-253.061035	-407.043091	1148.444336	-254.214203	-189.262894	1072.243774	-240.341415	-307.398041	537.316467	-58.530506	-326.162903	444.219727	-116.422997	-348.099396	260.947083	-75.393074	-360.962006	55.754311	-158.270462	-404.370392	52.466244	-206.231796	-226.285233	37.909786	-188.113724	-293.710083	535.849731	-428.959900	-320.309845	439.490723	-373.709869	-335.620972	259.605835	-436.824829	-358.751648	56.693836	-331.964600	-399.465698	46.612602	-283.547455	-233.179657	42.595627	-300.351501
176	1.75000000	-300.797089	1270.915161	-56.311405	-286.770233	1285.297729	-432.614441	-346.385284	1352.187378	-243.367752	-231.324493	1264.458496	-247.668320	-366.146912	1019.792236	63.170696	-348.215790	1032.147827	-550.914490	-340.095810	807.170715	130.830524	-302.899948	806.548706	-589.125275	-218.772049	882.724365	-118.036209	-203.311478	873.466553	-344.472534	-401.988129	939.050598	-253.016724	-407.118774	1148.463379	-254.263733	-189.269058	1072.242065	-240.334778	-307.445099	537.318726	-58.470154	-326.144989	444.232300	-116.401031	-348.111755	260.880524	-75.428307	-361.031586	55.760456	-158.308243	-404.372955	52.492054	-206.258408	-226.350189	37.927608	-188.120438	-293.667267	535.862061	-429.001404	-320.304047	439.485107	-373.678589	-335.557739	259.575287	-436.899445	-358.735535	56.762257	-332.036865	-399.347382	46.523983	-283.648346	-233.162704	42.592255	-300.389160
177	1.76000000	-300.976318	1270.893799	-56.294533	-286.831512	1285.242920	-432.554321	-346.473694	1352.123047	-243.310638	-231.318359	1264.465210	-247.695145	-366.126465	1019.775391	63.154617	-348.225250	1032.145264	-550.926331	-340.243668	807.109467	130.785374	-302.932755	806.559662	-589.155396	-218.787643	882.734680	-118.024132	-203.356659	873.529175	-344.376495	-402.006348	939.038147	-253.038132	-407.200195	1148.400757	-254.212494	-189.383560	1072.258911	-240.373779	-307.521057	537.300354	-58.481094	-326.165955	444.224548	-116.395271	-348.114288	260.875702	-75.427994	-361.072174	55.778103	-158.291504	-404.371307	52.448277	-206.234070	-226.338303	37.905613	-188.109619	-293.553650	535.847351	-428.918457	-320.331085	439.452637	-373.686066	-335.582306	259.594879	-436.823883	-358.849030	56.727303	-331.897034	-399.418610	46.571774	-283.598206	-233.160675	42.591114	-300.380280
178	1.77000000	-301.141144	1270.902588	-56.282318	-286.850769	1285.235474	-432.552307	-346.518707	1352.101685	-243.389221	-231.506287	1264.461792	-247.666153	-366.169556	1019.746826	63.081631	-348.224609	1032.127319	-550.889832	-340.305710	807.071136	130.787312	-302.893250	806.530457	-589.180573	-218.969925	882.747253	-117.992897	-203.293915	873.632751	-344.490540	-401.990143	938.971985	-253.020386	-407.218109	1148.357300	-254.318054	-189.458099	1072.331665	-240.257645	-307.538177	537.278564	-58.455894	-326.091858	444.221741	-116.354988	-348.136505	260.969147	-75.353127	-360.960052	55.748367	-158.262451	-404.348206	52.449940	-206.257462	-226.323029	37.918503	-188.161392	-293.562561	535.828064	-428.836914	-320.252319	439.495575	-373.713867	-335.520233	259.585449	-436.753693	-358.784149	56.735229	-331.976654	-399.382263	46.505043	-283.613098	-233.185440	42.596527	-300.403839
179	1.78000000	-301.442749	1270.895996	-56.086464	-286.985962	1285.234985	-432.558502	-346.687805	1352.123535	-243.290329	-231.543152	1264.472046	-247.654572	-366.382782	1019.743408	63.100388	-348.254974	1032.137207	-550.939148	-340.426071	807.077209	130.721977	-302.941437	806.507416	-589.221863	-219.004807	882.739868	-117.986549	-203.170547	873.663513	-344.447235	-402.124481	938.992981	-253.039169	-407.264618	1148.397095	-254.269241	-189.464005	1072.334351	-240.241882	-307.531311	537.271667	-58.431042	-326.220825	444.253204	-116.350197	-348.156647	260.915314	-75.348190	-361.027283	55.731529	-158.318924	-404.346405	52.450420	-206.259872	-226.344757	37.926983	-188.133301	-293.544434	535.848083	-428.867645	-320.228180	439.474060	-373.683289	-335.460083	259.593750	-436.735138	-358.769043	56.679195	-331.927460	-399.609802	46.648502	-283.431458	-233.232056	42.576324	-300.412659
180	1.79000000	-301.384949	1270.878418	-56.233368	-286.997559	1285.218994	-432.551239	-346.749756	1352.138062	-243.382294	-231.602448	1264.452026	-247.565216	-366.422913	1019.701477	62.999718	-348.303925	1032.118774	-550.941162	-340.471924	807.017670	130.668903	-302.949188	806.496826	-589.212524	-218.979828	882.801697	-117.935661	-203.208221	873.569763	-344.349396	-402.138916	938.999451	-253.065460	-407.378448	1148.376831	-254.308716	-189.459091	1072.334717	-240.246628	-307.639069	537.301147	-58.464962	-326.252594	444.264038	-116.341042	-348.144806	260.782593	-75.452652	-360.954376	55.742535	-158.268173	-404.340973	52.442944	-206.249649	-226.386230	37.887848	-188.125687	-293.563843	535.858582	-428.843475	-320.230713	439.479889	-373.758942	-335.366852	259.594238	-436.730377	-358.750549	56.725739	-332.041992	-399.451508	46.519764	-283.583221	-233.184616	42.539158	-300.386719
181	1.80000000	-301.462433	1270.922485	-56.190094	-287.011200	1285.212769	-432.506897	-346.841339	1352.119263	-243.299896	-231.744110	1264.443970	-247.560944	-366.491211	1019.695190	63.032681	-348.358582	1032.132080	-550.897156	-340.550293	806.954224	130.610901	-302.948257	806.471649	-589.207886	-219.041214	882.824707	-117.864304	-203.420807	873.543945	-344.304504	-402.136078	938.981873	-253.065994	-407.395538	1148.310547	-254.290359	-189.528549	1072.332153	-240.177551	-307.690643	537.325684	-58.457439	-326.167480	444.259460	-116.303070	-348.071716	260.884857	-75.416809	-361.028931	55.731808	-158.322571	-404.367950	52.444599	-206.233307	-226.350388	37.895786	-188.113129	-293.417847	535.864868	-428.791870	-320.157135	439.446655	-373.681305	-335.295319	259.571655	-436.775818	-358.744446	56.757446	-332.025513	-399.399048	46.502956	-283.627991	-233.248718	42.587227	-300.445251
182	1.81000000	-301.556396	1270.922607	-56.141712	-287.020905	1285.176392	-432.441437	-346.917023	1352.075195	-243.332474	-231.908859	1264.480591	-247.288330	-366.659790	1019.666565	63.036446	-348.354004	1032.122925	-550.860779	-340.555817	806.978210	130.593040	-302.982590	806.465851	-589.204468	-219.169907	882.832825	-117.865158	-203.453384	873.536011	-344.273682	-402.218475	938.981995	-253.097900	-407.482666	1148.315674	-254.230286	-189.561539	1072.401245	-240.135025	-307.597992	537.300049	-58.388783	-326.114441	444.191681	-116.326653	-348.107910	260.861542	-75.458939	-361.019012	55.727135	-158.235886	-404.371307	52.446342	-206.232071	-226.340500	37.898865	-188.139648	-293.419525	535.875549	-428.821136	-320.149353	439.396576	-373.694122	-335.239349	259.585724	-436.764435	-358.736206	56.679237	-331.997742	-399.339813	46.518024	-283.653259	-233.259018	42.580315	-300.442291
183	1.82000000	-301.571747	1270.936035	-56.116749	-287.005676	1285.158936	-432.431488	-346.992035	1352.093384	-243.296371	-231.873932	1264.449463	-247.431259	-366.769287	1019.684387	63.012688	-348.352142	1032.098877	-550.891052	-340.584549	806.944855	130.572933	-303.028290	806.445984	-589.241638	-219.215958	882.967041	-117.835953	-203.485825	873.602661	-344.179718	-402.298309	938.995544	-253.061996	-407.658539	1148.393188	-254.210846	-189.714539	1072.390381	-240.084717	-307.590912	537.335938	-58.402538	-326.166382	444.264923	-116.283096	-348.134125	260.852112	-75.423988	-361.072174	55.779388	-158.275986	-404.370239	52.445923	-206.232666	-226.345184	37.905552	-188.141190	-293.341370	535.839722	-428.898773	-320.137451	439.439209	-373.716156	-335.247314	259.590363	-436.750519	-358.717957	56.687824	-332.025879	-399.434387	46.542862	-283.582001	-233.235550	42.565243	-300.440338
